<mxfile host="app.diagrams.net" modified="2023-10-27T07:09:57.365Z" agent="Mozilla/5.0 (X11; Ubuntu; Linux x86_64; rv:109.0) Gecko/20100101 Firefox/118.0" etag="pPzJeiHv7gznxai2ocJa" version="22.0.8" type="device">
  <diagram id="prtHgNgQTEPvFCAcTncT" name="Page-1">
    <mxGraphModel dx="2336" dy="892" grid="1" gridSize="10" guides="1" tooltips="1" connect="1" arrows="1" fold="1" page="1" pageScale="1" pageWidth="827" pageHeight="1169" math="0" shadow="0">
      <root>
        <mxCell id="0" />
        <mxCell id="1" parent="0" />
        <mxCell id="Dy0pCIB4RuVuIuxyZ4c--112" value="" style="group" parent="1" vertex="1" connectable="0">
          <mxGeometry x="346" y="417.30999999999995" width="37.26999999999998" height="43.379999999999995" as="geometry" />
        </mxCell>
        <mxCell id="Dy0pCIB4RuVuIuxyZ4c--107" value="" style="sketch=0;outlineConnect=0;fontColor=#232F3E;gradientColor=none;fillColor=#515151;strokeColor=none;dashed=0;verticalLabelPosition=bottom;verticalAlign=top;align=center;html=1;fontSize=12;fontStyle=0;aspect=fixed;pointerEvents=1;shape=mxgraph.aws4.documents2;container=0;" parent="Dy0pCIB4RuVuIuxyZ4c--112" vertex="1">
          <mxGeometry width="37.27" height="43.38" as="geometry" />
        </mxCell>
        <mxCell id="iK-NEFrNJ9JzUZttqXqQ-23" value="&lt;font color=&quot;#0072b2&quot;&gt;Community B&lt;br&gt;&lt;/font&gt;" style="points=[[0,0],[0.25,0],[0.5,0],[0.75,0],[1,0],[1,0.25],[1,0.5],[1,0.75],[1,1],[0.75,1],[0.5,1],[0.25,1],[0,1],[0,0.75],[0,0.5],[0,0.25]];outlineConnect=0;gradientColor=none;html=1;whiteSpace=wrap;fontSize=16;fontStyle=1;container=1;pointerEvents=0;collapsible=0;recursiveResize=0;shape=mxgraph.aws4.group;grIcon=mxgraph.aws4.group_region;strokeColor=#0072B2;fillColor=none;verticalAlign=top;align=left;spacingLeft=30;fontColor=#165A97;dashed=1;fontFamily=PT Sans;fontSource=https%3A%2F%2Ffonts.googleapis.com%2Fcss%3Ffamily%3DPT%2BSans;strokeWidth=3;" parent="1" vertex="1">
          <mxGeometry x="-440" y="270" width="240" height="340" as="geometry" />
        </mxCell>
        <mxCell id="iK-NEFrNJ9JzUZttqXqQ-79" value="&lt;font data-font-src=&quot;https://fonts.googleapis.com/css?family=PT+Sans&quot; style=&quot;font-size: 16px;&quot; face=&quot;PT Sans&quot;&gt;&lt;b&gt;Proxy + S3&lt;br&gt;&lt;/b&gt;&lt;/font&gt;" style="fillColor=none;strokeColor=#B3B3B3;verticalAlign=top;fontStyle=0;fontColor=#666666;whiteSpace=wrap;html=1;dashed=1;strokeWidth=2;" parent="iK-NEFrNJ9JzUZttqXqQ-23" vertex="1">
          <mxGeometry x="20.210000000000036" y="237.16999999999996" width="199.57" height="90.65" as="geometry" />
        </mxCell>
        <mxCell id="iK-NEFrNJ9JzUZttqXqQ-80" value="" style="sketch=0;outlineConnect=0;fontColor=#232F3E;gradientColor=none;fillColor=#515151;strokeColor=none;dashed=0;verticalLabelPosition=bottom;verticalAlign=top;align=center;html=1;fontSize=12;fontStyle=0;aspect=fixed;pointerEvents=1;shape=mxgraph.aws4.s3_on_outposts;" parent="iK-NEFrNJ9JzUZttqXqQ-23" vertex="1">
          <mxGeometry x="155.51" y="265.7199999999999" width="48" height="48" as="geometry" />
        </mxCell>
        <mxCell id="iK-NEFrNJ9JzUZttqXqQ-81" value="" style="sketch=0;outlineConnect=0;fontColor=#232F3E;gradientColor=none;fillColor=#515151;strokeColor=none;dashed=0;verticalLabelPosition=bottom;verticalAlign=top;align=center;html=1;fontSize=12;fontStyle=0;aspect=fixed;pointerEvents=1;shape=mxgraph.aws4.bucket_with_objects;" parent="iK-NEFrNJ9JzUZttqXqQ-23" vertex="1">
          <mxGeometry x="41.27999999999997" y="267.81999999999994" width="42.21" height="43.9" as="geometry" />
        </mxCell>
        <mxCell id="iK-NEFrNJ9JzUZttqXqQ-82" value="" style="edgeStyle=orthogonalEdgeStyle;html=1;endArrow=block;elbow=vertical;startArrow=block;startFill=1;endFill=1;strokeColor=#515151;rounded=0;targetPerimeterSpacing=10;sourcePerimeterSpacing=10;strokeWidth=2;" parent="iK-NEFrNJ9JzUZttqXqQ-23" source="iK-NEFrNJ9JzUZttqXqQ-81" target="iK-NEFrNJ9JzUZttqXqQ-80" edge="1">
          <mxGeometry width="100" relative="1" as="geometry">
            <mxPoint x="90.99000000000001" y="291.63" as="sourcePoint" />
            <mxPoint x="143.99" y="291.63" as="targetPoint" />
          </mxGeometry>
        </mxCell>
        <mxCell id="Dy0pCIB4RuVuIuxyZ4c--87" value="" style="group;fillColor=none;" parent="iK-NEFrNJ9JzUZttqXqQ-23" vertex="1" connectable="0">
          <mxGeometry x="109.78999999999996" y="173.44" width="20" height="24.5" as="geometry" />
        </mxCell>
        <mxCell id="Dy0pCIB4RuVuIuxyZ4c--89" value="" style="sketch=0;outlineConnect=0;fontColor=#232F3E;gradientColor=none;fillColor=#515151;strokeColor=none;dashed=0;verticalLabelPosition=bottom;verticalAlign=top;align=center;html=1;fontSize=12;fontStyle=0;aspect=fixed;pointerEvents=1;shape=mxgraph.aws4.documents3;" parent="Dy0pCIB4RuVuIuxyZ4c--87" vertex="1">
          <mxGeometry x="0.8249999999999886" y="0.6137754780084624" width="16.246931475903615" height="22.23264307228916" as="geometry" />
        </mxCell>
        <mxCell id="DxfF0z7PUl6UdrVJI3ow-6" value="" style="edgeStyle=orthogonalEdgeStyle;html=1;endArrow=block;elbow=vertical;startArrow=none;startFill=0;endFill=1;strokeColor=#666666;rounded=0;targetPerimeterSpacing=3;sourcePerimeterSpacing=1;dashed=1;dashPattern=1 4;strokeWidth=2;" edge="1" parent="iK-NEFrNJ9JzUZttqXqQ-23" source="Dy0pCIB4RuVuIuxyZ4c--89" target="iK-NEFrNJ9JzUZttqXqQ-79">
          <mxGeometry width="100" relative="1" as="geometry">
            <mxPoint x="130" y="184" as="sourcePoint" />
            <mxPoint x="130" y="156" as="targetPoint" />
            <Array as="points">
              <mxPoint x="120" y="210" />
              <mxPoint x="120" y="210" />
            </Array>
          </mxGeometry>
        </mxCell>
        <mxCell id="iK-NEFrNJ9JzUZttqXqQ-77" value="&lt;font data-font-src=&quot;https://fonts.googleapis.com/css?family=PT+Sans&quot; style=&quot;font-size: 16px;&quot; face=&quot;PT Sans&quot;&gt;&lt;b&gt;Proxy + FS &lt;/b&gt;&lt;/font&gt;" style="fillColor=none;strokeColor=#B3B3B3;verticalAlign=top;fontStyle=0;fontColor=#666666;whiteSpace=wrap;html=1;dashed=1;strokeWidth=2;" parent="1" vertex="1">
          <mxGeometry x="-420" y="320.0000000000001" width="199.57" height="90.65" as="geometry" />
        </mxCell>
        <mxCell id="iK-NEFrNJ9JzUZttqXqQ-14" value="&lt;font color=&quot;#009e73&quot;&gt;Community C&lt;/font&gt;" style="points=[[0,0],[0.25,0],[0.5,0],[0.75,0],[1,0],[1,0.25],[1,0.5],[1,0.75],[1,1],[0.75,1],[0.5,1],[0.25,1],[0,1],[0,0.75],[0,0.5],[0,0.25]];outlineConnect=0;gradientColor=none;html=1;whiteSpace=wrap;fontSize=16;fontStyle=1;container=1;pointerEvents=0;collapsible=0;recursiveResize=0;shape=mxgraph.aws4.group;grIcon=mxgraph.aws4.group_region;strokeColor=#009E73;fillColor=none;verticalAlign=top;align=left;spacingLeft=30;fontColor=#00A1A3;dashed=1;fontFamily=PT Sans;fontSource=https%3A%2F%2Ffonts.googleapis.com%2Fcss%3Ffamily%3DPT%2BSans;strokeWidth=3;" parent="1" vertex="1">
          <mxGeometry x="441" y="380" width="240" height="340" as="geometry" />
        </mxCell>
        <mxCell id="iK-NEFrNJ9JzUZttqXqQ-96" value="&lt;font data-font-src=&quot;https://fonts.googleapis.com/css?family=PT+Sans&quot; size=&quot;1&quot; face=&quot;PT Sans&quot;&gt;&lt;b style=&quot;font-size: 16px;&quot;&gt;Proxy + Archive &lt;/b&gt;&lt;/font&gt;" style="fillColor=none;strokeColor=#B3B3B3;verticalAlign=top;fontStyle=0;fontColor=#666666;whiteSpace=wrap;html=1;dashed=1;strokeWidth=2;" parent="iK-NEFrNJ9JzUZttqXqQ-14" vertex="1">
          <mxGeometry x="20" y="238" width="199.57" height="90.65" as="geometry" />
        </mxCell>
        <mxCell id="iK-NEFrNJ9JzUZttqXqQ-92" value="&lt;font data-font-src=&quot;https://fonts.googleapis.com/css?family=PT+Sans&quot; size=&quot;1&quot; face=&quot;PT Sans&quot;&gt;&lt;b style=&quot;font-size: 16px;&quot;&gt;Proxy + FS &lt;/b&gt;&lt;/font&gt;" style="fillColor=none;strokeColor=#B3B3B3;verticalAlign=top;fontStyle=0;fontColor=#666666;whiteSpace=wrap;html=1;dashed=1;strokeWidth=2;glass=1;" parent="iK-NEFrNJ9JzUZttqXqQ-14" vertex="1">
          <mxGeometry x="20" y="49.000000000000114" width="199.57" height="90.65" as="geometry" />
        </mxCell>
        <mxCell id="Dy0pCIB4RuVuIuxyZ4c--76" value="" style="edgeStyle=orthogonalEdgeStyle;html=1;endArrow=none;elbow=vertical;startArrow=block;startFill=1;endFill=0;strokeColor=#666666;rounded=0;targetPerimeterSpacing=0;sourcePerimeterSpacing=3;dashed=1;dashPattern=1 4;strokeWidth=2;" parent="iK-NEFrNJ9JzUZttqXqQ-14" source="iK-NEFrNJ9JzUZttqXqQ-96" target="iK-NEFrNJ9JzUZttqXqQ-120" edge="1">
          <mxGeometry width="100" relative="1" as="geometry">
            <mxPoint x="130" y="5" as="sourcePoint" />
            <mxPoint x="130" y="-64" as="targetPoint" />
            <Array as="points" />
          </mxGeometry>
        </mxCell>
        <mxCell id="iK-NEFrNJ9JzUZttqXqQ-89" value="" style="sketch=0;outlineConnect=0;fontColor=#232F3E;gradientColor=none;fillColor=#515151;strokeColor=none;dashed=0;verticalLabelPosition=bottom;verticalAlign=top;align=center;html=1;fontSize=12;fontStyle=0;aspect=fixed;pointerEvents=1;shape=mxgraph.aws4.s3_on_outposts;" parent="iK-NEFrNJ9JzUZttqXqQ-14" vertex="1">
          <mxGeometry x="38.180000000000064" y="77.33000000000015" width="48" height="48" as="geometry" />
        </mxCell>
        <mxCell id="iK-NEFrNJ9JzUZttqXqQ-90" value="" style="sketch=0;outlineConnect=0;fontColor=#232F3E;gradientColor=none;fillColor=#515151;strokeColor=none;dashed=0;verticalLabelPosition=bottom;verticalAlign=top;align=center;html=1;fontSize=12;fontStyle=0;aspect=fixed;pointerEvents=1;shape=mxgraph.aws4.folders;" parent="iK-NEFrNJ9JzUZttqXqQ-14" vertex="1">
          <mxGeometry x="159.3900000000001" y="82.21000000000026" width="42" height="38.23" as="geometry" />
        </mxCell>
        <mxCell id="iK-NEFrNJ9JzUZttqXqQ-91" value="" style="edgeStyle=orthogonalEdgeStyle;html=1;endArrow=block;elbow=vertical;startArrow=block;startFill=1;endFill=1;strokeColor=#545B64;rounded=0;targetPerimeterSpacing=10;sourcePerimeterSpacing=10;strokeWidth=2;" parent="iK-NEFrNJ9JzUZttqXqQ-14" source="iK-NEFrNJ9JzUZttqXqQ-89" target="iK-NEFrNJ9JzUZttqXqQ-90" edge="1">
          <mxGeometry width="100" relative="1" as="geometry">
            <mxPoint x="97.79000000000008" y="207.35000000000036" as="sourcePoint" />
            <mxPoint x="179.79000000000008" y="207.35000000000036" as="targetPoint" />
          </mxGeometry>
        </mxCell>
        <mxCell id="iK-NEFrNJ9JzUZttqXqQ-94" value="" style="sketch=0;outlineConnect=0;fontColor=#232F3E;gradientColor=none;fillColor=#515151;strokeColor=none;dashed=0;verticalLabelPosition=bottom;verticalAlign=top;align=center;html=1;fontSize=12;fontStyle=0;aspect=fixed;pointerEvents=1;shape=mxgraph.aws4.s3_on_outposts;" parent="iK-NEFrNJ9JzUZttqXqQ-14" vertex="1">
          <mxGeometry x="35.75" y="267.28" width="48" height="48" as="geometry" />
        </mxCell>
        <mxCell id="iK-NEFrNJ9JzUZttqXqQ-95" value="" style="sketch=0;outlineConnect=0;fontColor=#232F3E;gradientColor=none;fillColor=#515151;strokeColor=none;dashed=0;verticalLabelPosition=bottom;verticalAlign=top;align=center;html=1;fontSize=12;fontStyle=0;aspect=fixed;pointerEvents=1;shape=mxgraph.aws4.rds_multi_az_db_cluster;" parent="iK-NEFrNJ9JzUZttqXqQ-14" vertex="1">
          <mxGeometry x="153.72000000000003" y="266.28" width="50.1" height="50.1" as="geometry" />
        </mxCell>
        <mxCell id="iK-NEFrNJ9JzUZttqXqQ-97" value="" style="edgeStyle=orthogonalEdgeStyle;html=1;endArrow=block;elbow=vertical;startArrow=block;startFill=1;endFill=1;strokeColor=#515151;rounded=0;targetPerimeterSpacing=10;sourcePerimeterSpacing=10;strokeWidth=2;" parent="iK-NEFrNJ9JzUZttqXqQ-14" source="iK-NEFrNJ9JzUZttqXqQ-94" target="iK-NEFrNJ9JzUZttqXqQ-95" edge="1">
          <mxGeometry width="100" relative="1" as="geometry">
            <mxPoint x="93.72000000000003" y="291.1300000000001" as="sourcePoint" />
            <mxPoint x="146.72000000000003" y="291.1300000000001" as="targetPoint" />
          </mxGeometry>
        </mxCell>
        <mxCell id="iK-NEFrNJ9JzUZttqXqQ-120" value="" style="sketch=0;outlineConnect=0;fontColor=#232F3E;gradientColor=none;fillColor=#515151;strokeColor=none;dashed=0;verticalLabelPosition=bottom;verticalAlign=top;align=center;html=1;fontSize=12;fontStyle=0;aspect=fixed;pointerEvents=1;shape=mxgraph.aws4.documents3;" parent="iK-NEFrNJ9JzUZttqXqQ-14" vertex="1">
          <mxGeometry x="111.82500000000005" y="175.6137754780085" width="16.246931475903615" height="22.23264307228916" as="geometry" />
        </mxCell>
        <mxCell id="DxfF0z7PUl6UdrVJI3ow-10" value="" style="edgeStyle=orthogonalEdgeStyle;html=1;endArrow=none;elbow=vertical;startArrow=block;startFill=1;endFill=0;strokeColor=#666666;rounded=0;targetPerimeterSpacing=0;sourcePerimeterSpacing=3;dashed=1;dashPattern=1 4;strokeWidth=2;" edge="1" parent="iK-NEFrNJ9JzUZttqXqQ-14" source="iK-NEFrNJ9JzUZttqXqQ-92" target="iK-NEFrNJ9JzUZttqXqQ-120">
          <mxGeometry width="100" relative="1" as="geometry">
            <mxPoint x="130" y="243" as="sourcePoint" />
            <mxPoint x="130" y="207" as="targetPoint" />
            <Array as="points" />
          </mxGeometry>
        </mxCell>
        <mxCell id="uHPWI1GwIoGL0D9MKeWJ-114" value="" style="edgeStyle=orthogonalEdgeStyle;html=1;endArrow=block;elbow=vertical;startArrow=none;startFill=0;endFill=1;strokeColor=#515151;rounded=0;targetPerimeterSpacing=5;sourcePerimeterSpacing=5;dashed=1;dashPattern=1 4;strokeWidth=3;" parent="1" source="iK-NEFrNJ9JzUZttqXqQ-109" target="iK-NEFrNJ9JzUZttqXqQ-23" edge="1">
          <mxGeometry width="100" relative="1" as="geometry">
            <mxPoint x="340" y="219" as="sourcePoint" />
            <mxPoint x="-235" y="300" as="targetPoint" />
            <Array as="points">
              <mxPoint x="-320" y="201" />
            </Array>
          </mxGeometry>
        </mxCell>
        <mxCell id="iK-NEFrNJ9JzUZttqXqQ-107" value="" style="group;fillColor=none;" parent="1" vertex="1" connectable="0">
          <mxGeometry x="96.49999999999997" y="180" width="30" height="41.5" as="geometry" />
        </mxCell>
        <mxCell id="iK-NEFrNJ9JzUZttqXqQ-109" value="" style="sketch=0;outlineConnect=0;fontColor=#232F3E;gradientColor=none;fillColor=#515151;strokeColor=none;dashed=0;verticalLabelPosition=bottom;verticalAlign=top;align=center;html=1;fontSize=12;fontStyle=0;aspect=fixed;pointerEvents=1;shape=mxgraph.aws4.documents3;" parent="iK-NEFrNJ9JzUZttqXqQ-107" vertex="1">
          <mxGeometry x="1.237499999999983" y="1.0396605035653548" width="27.520312500000003" height="37.659375000000004" as="geometry" />
        </mxCell>
        <mxCell id="iK-NEFrNJ9JzUZttqXqQ-110" value="" style="edgeStyle=orthogonalEdgeStyle;html=1;endArrow=block;elbow=vertical;startArrow=none;startFill=0;endFill=1;strokeColor=#515151;rounded=0;targetPerimeterSpacing=5;sourcePerimeterSpacing=5;dashed=1;dashPattern=1 4;strokeWidth=3;" parent="1" source="iK-NEFrNJ9JzUZttqXqQ-113" target="iK-NEFrNJ9JzUZttqXqQ-23" edge="1">
          <mxGeometry width="100" relative="1" as="geometry">
            <mxPoint x="370" y="760" as="sourcePoint" />
            <mxPoint x="-210" y="811" as="targetPoint" />
            <Array as="points">
              <mxPoint x="-320" y="680" />
            </Array>
          </mxGeometry>
        </mxCell>
        <mxCell id="iK-NEFrNJ9JzUZttqXqQ-111" value="" style="group;fillColor=none;" parent="1" vertex="1" connectable="0">
          <mxGeometry x="104.02999999999997" y="660" width="30" height="41.5" as="geometry" />
        </mxCell>
        <mxCell id="iK-NEFrNJ9JzUZttqXqQ-113" value="" style="sketch=0;outlineConnect=0;fontColor=#232F3E;gradientColor=none;fillColor=#232F3D;strokeColor=none;dashed=0;verticalLabelPosition=bottom;verticalAlign=top;align=center;html=1;fontSize=12;fontStyle=0;aspect=fixed;pointerEvents=1;shape=mxgraph.aws4.documents3;" parent="iK-NEFrNJ9JzUZttqXqQ-111" vertex="1">
          <mxGeometry x="1.237499999999983" y="1.0396605035653548" width="27.520312500000003" height="37.659375000000004" as="geometry" />
        </mxCell>
        <mxCell id="iK-NEFrNJ9JzUZttqXqQ-114" value="" style="edgeStyle=orthogonalEdgeStyle;html=1;endArrow=none;elbow=vertical;startArrow=block;startFill=1;endFill=0;strokeColor=#515151;rounded=0;targetPerimeterSpacing=0;sourcePerimeterSpacing=5;dashed=1;dashPattern=1 2;strokeWidth=3;" parent="1" source="iK-NEFrNJ9JzUZttqXqQ-14" target="iK-NEFrNJ9JzUZttqXqQ-117" edge="1">
          <mxGeometry width="100" relative="1" as="geometry">
            <mxPoint x="567" y="360" as="sourcePoint" />
            <mxPoint x="567" y="310" as="targetPoint" />
            <Array as="points">
              <mxPoint x="570" y="350" />
              <mxPoint x="570" y="350" />
            </Array>
          </mxGeometry>
        </mxCell>
        <mxCell id="iK-NEFrNJ9JzUZttqXqQ-134" value="" style="group;strokeWidth=1;fillColor=none;" parent="1" vertex="1" connectable="0">
          <mxGeometry x="-50.97" y="269.5" width="340" height="362.03" as="geometry" />
        </mxCell>
        <mxCell id="iK-NEFrNJ9JzUZttqXqQ-132" value="" style="verticalLabelPosition=bottom;html=1;verticalAlign=top;strokeWidth=3;shape=mxgraph.lean_mapping.physical_pull;pointerEvents=1;aspect=fixed;direction=south;rotation=210;fillColor=#515151;strokeColor=#515151;" parent="iK-NEFrNJ9JzUZttqXqQ-134" vertex="1">
          <mxGeometry x="29.31" y="28.060000000000002" width="285.88" height="285.88" as="geometry" />
        </mxCell>
        <mxCell id="YDtB7gOyk6oC0gNYQ-rf-70" value="" style="group;aspect=fixed;verticalAlign=middle;fillColor=none;strokeColor=#515151;rounded=0;" parent="iK-NEFrNJ9JzUZttqXqQ-134" vertex="1" connectable="0">
          <mxGeometry x="140" width="60" height="60" as="geometry" />
        </mxCell>
        <mxCell id="YDtB7gOyk6oC0gNYQ-rf-71" value="" style="rounded=0;whiteSpace=wrap;html=1;rotation=90;strokeColor=#666666;" parent="YDtB7gOyk6oC0gNYQ-rf-70" vertex="1">
          <mxGeometry width="60" height="60" as="geometry" />
        </mxCell>
        <mxCell id="YDtB7gOyk6oC0gNYQ-rf-72" value="" style="sketch=0;pointerEvents=1;shadow=0;dashed=0;html=1;strokeColor=none;labelPosition=center;verticalLabelPosition=bottom;verticalAlign=top;align=center;fillColor=#515151;shape=mxgraph.mscae.system_center.cloud_distribution_point" parent="YDtB7gOyk6oC0gNYQ-rf-70" vertex="1">
          <mxGeometry x="7" y="5" width="46" height="50" as="geometry" />
        </mxCell>
        <mxCell id="YDtB7gOyk6oC0gNYQ-rf-143" value="" style="shape=image;verticalLabelPosition=bottom;labelBackgroundColor=default;verticalAlign=top;aspect=fixed;imageAspect=0;image=https://aruna-storage.org/aruna_light.png;imageBackground=none;" parent="iK-NEFrNJ9JzUZttqXqQ-134" vertex="1">
          <mxGeometry x="91" y="132.08" width="162.5" height="40.49" as="geometry" />
        </mxCell>
        <mxCell id="uHPWI1GwIoGL0D9MKeWJ-51" value="" style="group;aspect=fixed;verticalAlign=middle;fillColor=none;strokeColor=#515151;rounded=0;" parent="iK-NEFrNJ9JzUZttqXqQ-134" vertex="1" connectable="0">
          <mxGeometry x="280" y="139" width="60" height="60" as="geometry" />
        </mxCell>
        <mxCell id="uHPWI1GwIoGL0D9MKeWJ-52" value="" style="rounded=0;whiteSpace=wrap;html=1;rotation=90;strokeColor=#666666;fillColor=default;" parent="uHPWI1GwIoGL0D9MKeWJ-51" vertex="1">
          <mxGeometry width="60" height="60" as="geometry" />
        </mxCell>
        <mxCell id="uHPWI1GwIoGL0D9MKeWJ-53" value="" style="sketch=0;pointerEvents=1;shadow=0;dashed=0;html=1;strokeColor=none;labelPosition=center;verticalLabelPosition=bottom;verticalAlign=top;align=center;fillColor=#515151;shape=mxgraph.mscae.system_center.cloud_distribution_point;fontColor=#232F3E;gradientColor=none;fontStyle=0;" parent="uHPWI1GwIoGL0D9MKeWJ-51" vertex="1">
          <mxGeometry x="7" y="5" width="46" height="50" as="geometry" />
        </mxCell>
        <mxCell id="uHPWI1GwIoGL0D9MKeWJ-54" value="" style="group;aspect=fixed;" parent="iK-NEFrNJ9JzUZttqXqQ-134" vertex="1" connectable="0">
          <mxGeometry y="141" width="60" height="60" as="geometry" />
        </mxCell>
        <mxCell id="uHPWI1GwIoGL0D9MKeWJ-55" value="" style="rounded=0;whiteSpace=wrap;html=1;rotation=90;strokeColor=#515151;" parent="uHPWI1GwIoGL0D9MKeWJ-54" vertex="1">
          <mxGeometry y="-1" width="60" height="60" as="geometry" />
        </mxCell>
        <mxCell id="uHPWI1GwIoGL0D9MKeWJ-56" value="" style="sketch=0;pointerEvents=1;shadow=0;dashed=0;html=1;strokeColor=none;labelPosition=center;verticalLabelPosition=bottom;verticalAlign=top;align=center;fillColor=#515151;shape=mxgraph.mscae.system_center.cloud_distribution_point" parent="uHPWI1GwIoGL0D9MKeWJ-54" vertex="1">
          <mxGeometry x="7" y="5" width="46" height="50" as="geometry" />
        </mxCell>
        <mxCell id="uHPWI1GwIoGL0D9MKeWJ-57" value="" style="group;aspect=fixed;" parent="iK-NEFrNJ9JzUZttqXqQ-134" vertex="1" connectable="0">
          <mxGeometry x="140" y="271" width="100" height="91.03" as="geometry" />
        </mxCell>
        <mxCell id="uHPWI1GwIoGL0D9MKeWJ-58" value="" style="rounded=0;whiteSpace=wrap;html=1;rotation=90;strokeColor=#515151;" parent="uHPWI1GwIoGL0D9MKeWJ-57" vertex="1">
          <mxGeometry y="8" width="60" height="60" as="geometry" />
        </mxCell>
        <mxCell id="uHPWI1GwIoGL0D9MKeWJ-59" value="" style="sketch=0;pointerEvents=1;shadow=0;dashed=0;html=1;strokeColor=none;labelPosition=center;verticalLabelPosition=bottom;verticalAlign=top;align=center;fillColor=#515151;shape=mxgraph.mscae.system_center.cloud_distribution_point" parent="uHPWI1GwIoGL0D9MKeWJ-57" vertex="1">
          <mxGeometry x="7" y="13" width="46" height="50" as="geometry" />
        </mxCell>
        <mxCell id="iK-NEFrNJ9JzUZttqXqQ-12" value="&lt;font data-font-src=&quot;https://fonts.googleapis.com/css?family=PT+Sans&quot; size=&quot;1&quot; face=&quot;PT Sans&quot;&gt;&lt;b style=&quot;font-size: 16px;&quot;&gt;Central components&lt;/b&gt;&lt;/font&gt;" style="text;html=1;strokeColor=none;fillColor=none;align=center;verticalAlign=middle;whiteSpace=wrap;rounded=0;fontColor=#515151;" parent="iK-NEFrNJ9JzUZttqXqQ-134" vertex="1">
          <mxGeometry x="97.5" y="174.57" width="145" height="30" as="geometry" />
        </mxCell>
        <mxCell id="iK-NEFrNJ9JzUZttqXqQ-136" value="" style="group" parent="iK-NEFrNJ9JzUZttqXqQ-134" vertex="1" connectable="0">
          <mxGeometry x="78.97" y="210.33999999999997" width="187.5" height="31.599999999999994" as="geometry" />
        </mxCell>
        <mxCell id="YDtB7gOyk6oC0gNYQ-rf-148" value="" style="rounded=0;whiteSpace=wrap;html=1;strokeColor=#515151;fillColor=none;" parent="iK-NEFrNJ9JzUZttqXqQ-136" vertex="1">
          <mxGeometry y="2.1316282072803006e-14" width="84.5" height="31.5" as="geometry" />
        </mxCell>
        <mxCell id="YDtB7gOyk6oC0gNYQ-rf-153" value="&lt;b style=&quot;font-size: 18px;&quot;&gt;IAM&lt;/b&gt;" style="text;html=1;strokeColor=none;fillColor=none;align=center;verticalAlign=middle;whiteSpace=wrap;rounded=0;fontSize=18;fontFamily=PT Sans;fontSource=https%3A%2F%2Ffonts.googleapis.com%2Fcss%3Ffamily%3DPT%2BSans;fontColor=#515151;" parent="iK-NEFrNJ9JzUZttqXqQ-136" vertex="1">
          <mxGeometry x="34" y="6.100000000000044" width="45.5" height="19.29" as="geometry" />
        </mxCell>
        <mxCell id="YDtB7gOyk6oC0gNYQ-rf-149" value="" style="image;sketch=0;aspect=fixed;html=1;points=[];align=center;fontSize=12;image=img/lib/mscae/Security_Center.svg;imageBackground=none;" parent="iK-NEFrNJ9JzUZttqXqQ-136" vertex="1">
          <mxGeometry x="5" y="1.9900000000000304" width="20.15" height="28" as="geometry" />
        </mxCell>
        <mxCell id="iK-NEFrNJ9JzUZttqXqQ-135" value="" style="group" parent="iK-NEFrNJ9JzUZttqXqQ-136" vertex="1" connectable="0">
          <mxGeometry x="100" width="87.49999999999999" height="31.599999999999994" as="geometry" />
        </mxCell>
        <mxCell id="uHPWI1GwIoGL0D9MKeWJ-44" value="" style="rounded=0;whiteSpace=wrap;html=1;strokeColor=#515151;fillColor=none;" parent="iK-NEFrNJ9JzUZttqXqQ-135" vertex="1">
          <mxGeometry width="84.5" height="31.6" as="geometry" />
        </mxCell>
        <mxCell id="uHPWI1GwIoGL0D9MKeWJ-45" value="&lt;b style=&quot;font-size: 18px;&quot;&gt;ABAC&lt;/b&gt;" style="text;html=1;strokeColor=none;fillColor=none;align=center;verticalAlign=middle;whiteSpace=wrap;rounded=0;fontSize=18;fontFamily=PT Sans;fontSource=https%3A%2F%2Ffonts.googleapis.com%2Fcss%3Ffamily%3DPT%2BSans;fontColor=#515151;" parent="iK-NEFrNJ9JzUZttqXqQ-135" vertex="1">
          <mxGeometry x="31.999999999999986" y="4.420000000000073" width="55.5" height="20.4" as="geometry" />
        </mxCell>
        <mxCell id="uHPWI1GwIoGL0D9MKeWJ-47" value="" style="sketch=0;outlineConnect=0;fontColor=#232F3E;gradientColor=none;fillColor=#7fba00;strokeColor=none;dashed=0;verticalLabelPosition=bottom;verticalAlign=top;align=center;html=1;fontSize=12;fontStyle=0;aspect=fixed;pointerEvents=1;shape=mxgraph.aws4.policy;strokeWidth=5;" parent="iK-NEFrNJ9JzUZttqXqQ-135" vertex="1">
          <mxGeometry x="5" y="2.8000000000000114" width="30.29" height="26" as="geometry" />
        </mxCell>
        <mxCell id="Dy0pCIB4RuVuIuxyZ4c--90" value="" style="group" parent="1" vertex="1" connectable="0">
          <mxGeometry x="441" y="120.75" width="240" height="160" as="geometry" />
        </mxCell>
        <mxCell id="iK-NEFrNJ9JzUZttqXqQ-13" value="&lt;font color=&quot;#d55e00&quot;&gt;Community A&lt;/font&gt;" style="points=[[0,0],[0.25,0],[0.5,0],[0.75,0],[1,0],[1,0.25],[1,0.5],[1,0.75],[1,1],[0.75,1],[0.5,1],[0.25,1],[0,1],[0,0.75],[0,0.5],[0,0.25]];outlineConnect=0;gradientColor=none;html=1;whiteSpace=wrap;fontSize=16;fontStyle=1;container=0;pointerEvents=0;collapsible=0;recursiveResize=0;shape=mxgraph.aws4.group;grIcon=mxgraph.aws4.group_region;strokeColor=#D55E00;fillColor=none;verticalAlign=top;align=left;spacingLeft=30;fontColor=#9E7645;dashed=1;fontFamily=PT Sans;fontSource=https%3A%2F%2Ffonts.googleapis.com%2Fcss%3Ffamily%3DPT%2BSans;strokeWidth=3;" parent="Dy0pCIB4RuVuIuxyZ4c--90" vertex="1">
          <mxGeometry width="240" height="160" as="geometry" />
        </mxCell>
        <mxCell id="iK-NEFrNJ9JzUZttqXqQ-84" value="&lt;font style=&quot;font-size: 16px;&quot;&gt;&lt;b&gt;&lt;font data-font-src=&quot;https://fonts.googleapis.com/css?family=PT+Sans&quot; face=&quot;PT Sans&quot;&gt;Proxy + S3&lt;/font&gt;&lt;br&gt;&lt;/b&gt;&lt;/font&gt;" style="fillColor=none;strokeColor=#B3B3B3;verticalAlign=top;fontStyle=0;fontColor=#666666;whiteSpace=wrap;html=1;dashed=1;movable=1;resizable=1;rotatable=1;deletable=1;editable=1;locked=0;connectable=1;container=0;strokeWidth=2;" parent="Dy0pCIB4RuVuIuxyZ4c--90" vertex="1">
          <mxGeometry x="20.210000000000093" y="40" width="199.57" height="90.65" as="geometry" />
        </mxCell>
        <mxCell id="iK-NEFrNJ9JzUZttqXqQ-85" value="" style="sketch=0;outlineConnect=0;fontColor=#232F3E;gradientColor=none;fillColor=#515151;strokeColor=none;dashed=0;verticalLabelPosition=bottom;verticalAlign=top;align=center;html=1;fontSize=12;fontStyle=0;aspect=fixed;pointerEvents=1;shape=mxgraph.aws4.s3_on_outposts;movable=1;resizable=1;rotatable=1;deletable=1;editable=1;locked=0;connectable=1;container=0;" parent="Dy0pCIB4RuVuIuxyZ4c--90" vertex="1">
          <mxGeometry x="38.38000000000005" y="67.32999999999993" width="48" height="48" as="geometry" />
        </mxCell>
        <mxCell id="iK-NEFrNJ9JzUZttqXqQ-86" value="" style="sketch=0;outlineConnect=0;fontColor=#232F3E;gradientColor=none;fillColor=#515151;strokeColor=none;dashed=0;verticalLabelPosition=bottom;verticalAlign=top;align=center;html=1;fontSize=12;fontStyle=0;aspect=fixed;pointerEvents=1;shape=mxgraph.aws4.bucket_with_objects;movable=1;resizable=1;rotatable=1;deletable=1;editable=1;locked=0;connectable=1;container=0;" parent="Dy0pCIB4RuVuIuxyZ4c--90" vertex="1">
          <mxGeometry x="159.3800000000001" y="69.38" width="42.21" height="43.9" as="geometry" />
        </mxCell>
        <mxCell id="iK-NEFrNJ9JzUZttqXqQ-87" value="" style="edgeStyle=orthogonalEdgeStyle;html=1;endArrow=block;elbow=vertical;startArrow=block;startFill=1;endFill=1;strokeColor=#515151;rounded=0;targetPerimeterSpacing=10;sourcePerimeterSpacing=10;strokeWidth=2;movable=1;resizable=1;rotatable=1;deletable=1;editable=1;locked=0;connectable=1;" parent="Dy0pCIB4RuVuIuxyZ4c--90" source="iK-NEFrNJ9JzUZttqXqQ-85" target="iK-NEFrNJ9JzUZttqXqQ-86" edge="1">
          <mxGeometry width="100" relative="1" as="geometry">
            <mxPoint x="98.38000000000011" y="99.27999999999997" as="sourcePoint" />
            <mxPoint x="198.37999999999988" y="99.27999999999997" as="targetPoint" />
          </mxGeometry>
        </mxCell>
        <mxCell id="iK-NEFrNJ9JzUZttqXqQ-74" value="" style="sketch=0;outlineConnect=0;fontColor=#232F3E;gradientColor=none;fillColor=#515151;strokeColor=none;dashed=0;verticalLabelPosition=bottom;verticalAlign=top;align=center;html=1;fontSize=12;fontStyle=0;aspect=fixed;pointerEvents=1;shape=mxgraph.aws4.s3_on_outposts;" parent="1" vertex="1">
          <mxGeometry x="-281.2199999999999" y="348.33000000000015" width="48" height="48" as="geometry" />
        </mxCell>
        <mxCell id="iK-NEFrNJ9JzUZttqXqQ-75" value="" style="sketch=0;outlineConnect=0;fontColor=#232F3E;gradientColor=none;fillColor=#515151;strokeColor=none;dashed=0;verticalLabelPosition=bottom;verticalAlign=top;align=center;html=1;fontSize=12;fontStyle=0;aspect=fixed;pointerEvents=1;shape=mxgraph.aws4.folders;" parent="1" vertex="1">
          <mxGeometry x="-401.77999999999986" y="353.21000000000026" width="42" height="38.23" as="geometry" />
        </mxCell>
        <mxCell id="iK-NEFrNJ9JzUZttqXqQ-76" value="" style="edgeStyle=orthogonalEdgeStyle;html=1;endArrow=block;elbow=vertical;startArrow=block;startFill=1;endFill=1;strokeColor=#515151;rounded=0;targetPerimeterSpacing=10;sourcePerimeterSpacing=10;strokeWidth=2;" parent="1" source="iK-NEFrNJ9JzUZttqXqQ-74" target="iK-NEFrNJ9JzUZttqXqQ-75" edge="1">
          <mxGeometry width="100" relative="1" as="geometry">
            <mxPoint x="-232.20999999999992" y="478.35000000000036" as="sourcePoint" />
            <mxPoint x="-150.20999999999992" y="478.35000000000036" as="targetPoint" />
          </mxGeometry>
        </mxCell>
        <mxCell id="Dy0pCIB4RuVuIuxyZ4c--93" value="" style="edgeStyle=orthogonalEdgeStyle;html=1;endArrow=none;elbow=vertical;startArrow=block;endFill=0;strokeColor=#515151;rounded=0;targetPerimeterSpacing=0;sourcePerimeterSpacing=5;strokeWidth=3;startFill=1;dashed=1;" parent="1" source="uHPWI1GwIoGL0D9MKeWJ-52" target="Dy0pCIB4RuVuIuxyZ4c--107" edge="1">
          <mxGeometry width="100" relative="1" as="geometry">
            <mxPoint x="310" y="420" as="sourcePoint" />
            <mxPoint x="410" y="420" as="targetPoint" />
            <Array as="points" />
          </mxGeometry>
        </mxCell>
        <mxCell id="Dy0pCIB4RuVuIuxyZ4c--94" value="" style="edgeStyle=orthogonalEdgeStyle;html=1;endArrow=none;elbow=vertical;startArrow=block;endFill=0;strokeColor=#515151;rounded=0;targetPerimeterSpacing=0;sourcePerimeterSpacing=5;strokeWidth=3;startFill=1;dashed=1;" parent="1" source="YDtB7gOyk6oC0gNYQ-rf-71" target="Dy0pCIB4RuVuIuxyZ4c--110" edge="1">
          <mxGeometry width="100" relative="1" as="geometry">
            <mxPoint x="210" y="261" as="sourcePoint" />
            <mxPoint x="356" y="250" as="targetPoint" />
            <Array as="points">
              <mxPoint x="280" y="299" />
            </Array>
          </mxGeometry>
        </mxCell>
        <mxCell id="Dy0pCIB4RuVuIuxyZ4c--99" value="" style="edgeStyle=orthogonalEdgeStyle;html=1;endArrow=block;elbow=vertical;startArrow=none;endFill=1;strokeColor=#515151;rounded=0;targetPerimeterSpacing=5;sourcePerimeterSpacing=0;strokeWidth=3;startFill=0;dashed=1;" parent="1" source="Dy0pCIB4RuVuIuxyZ4c--115" target="uHPWI1GwIoGL0D9MKeWJ-55" edge="1">
          <mxGeometry width="100" relative="1" as="geometry">
            <mxPoint x="-197" y="440.02222222222224" as="sourcePoint" />
            <mxPoint x="-57.97000000000003" y="439.8097520100928" as="targetPoint" />
            <Array as="points" />
          </mxGeometry>
        </mxCell>
        <mxCell id="Dy0pCIB4RuVuIuxyZ4c--108" value="" style="group" parent="1" vertex="1" connectable="0">
          <mxGeometry x="253" y="239.75" width="50" height="50" as="geometry" />
        </mxCell>
        <mxCell id="Dy0pCIB4RuVuIuxyZ4c--110" value="" style="sketch=0;outlineConnect=0;fontColor=#232F3E;gradientColor=none;fillColor=#515151;strokeColor=none;dashed=0;verticalLabelPosition=bottom;verticalAlign=top;align=center;html=1;fontSize=12;fontStyle=0;aspect=fixed;pointerEvents=1;shape=mxgraph.aws4.documents2;" parent="Dy0pCIB4RuVuIuxyZ4c--108" vertex="1">
          <mxGeometry x="6.360000000000001" y="3.31" width="37.27" height="43.38" as="geometry" />
        </mxCell>
        <mxCell id="Dy0pCIB4RuVuIuxyZ4c--113" value="" style="group" parent="1" vertex="1" connectable="0">
          <mxGeometry x="-143" y="417.99999999999994" width="37.26999999999998" height="43.379999999999995" as="geometry" />
        </mxCell>
        <mxCell id="Dy0pCIB4RuVuIuxyZ4c--115" value="" style="sketch=0;outlineConnect=0;fontColor=#232F3E;gradientColor=none;fillColor=#515151;strokeColor=none;dashed=0;verticalLabelPosition=bottom;verticalAlign=top;align=center;html=1;fontSize=12;fontStyle=0;aspect=fixed;pointerEvents=1;shape=mxgraph.aws4.documents2;container=0;" parent="Dy0pCIB4RuVuIuxyZ4c--113" vertex="1">
          <mxGeometry width="37.27" height="43.38" as="geometry" />
        </mxCell>
        <mxCell id="DxfF0z7PUl6UdrVJI3ow-1" value="" style="edgeStyle=orthogonalEdgeStyle;html=1;endArrow=none;elbow=vertical;startArrow=block;endFill=0;strokeColor=#515151;rounded=0;targetPerimeterSpacing=0;sourcePerimeterSpacing=5;strokeWidth=3;startFill=1;dashed=1;" edge="1" parent="1" source="iK-NEFrNJ9JzUZttqXqQ-13" target="Dy0pCIB4RuVuIuxyZ4c--110">
          <mxGeometry width="100" relative="1" as="geometry">
            <mxPoint x="304" y="282.25" as="sourcePoint" />
            <mxPoint x="340" y="260" as="targetPoint" />
            <Array as="points">
              <mxPoint x="278" y="230" />
            </Array>
          </mxGeometry>
        </mxCell>
        <mxCell id="DxfF0z7PUl6UdrVJI3ow-2" value="" style="edgeStyle=orthogonalEdgeStyle;html=1;endArrow=block;elbow=vertical;startArrow=none;endFill=1;strokeColor=#515151;rounded=0;targetPerimeterSpacing=5;sourcePerimeterSpacing=0;strokeWidth=3;startFill=0;dashed=1;" edge="1" parent="1" source="Dy0pCIB4RuVuIuxyZ4c--115" target="iK-NEFrNJ9JzUZttqXqQ-23">
          <mxGeometry width="100" relative="1" as="geometry">
            <mxPoint x="-91" y="450" as="sourcePoint" />
            <mxPoint x="-46" y="450" as="targetPoint" />
            <Array as="points" />
          </mxGeometry>
        </mxCell>
        <mxCell id="DxfF0z7PUl6UdrVJI3ow-3" value="" style="edgeStyle=orthogonalEdgeStyle;html=1;endArrow=none;elbow=vertical;startArrow=block;endFill=0;strokeColor=#515151;rounded=0;targetPerimeterSpacing=0;sourcePerimeterSpacing=5;strokeWidth=3;startFill=1;dashed=1;" edge="1" parent="1" source="iK-NEFrNJ9JzUZttqXqQ-14" target="Dy0pCIB4RuVuIuxyZ4c--107">
          <mxGeometry width="100" relative="1" as="geometry">
            <mxPoint x="304" y="449" as="sourcePoint" />
            <mxPoint x="356" y="449" as="targetPoint" />
            <Array as="points">
              <mxPoint x="420" y="439" />
              <mxPoint x="420" y="439" />
            </Array>
          </mxGeometry>
        </mxCell>
        <mxCell id="DxfF0z7PUl6UdrVJI3ow-4" value="" style="edgeStyle=orthogonalEdgeStyle;html=1;endArrow=block;elbow=vertical;startArrow=none;startFill=0;endFill=1;strokeColor=#515151;rounded=0;targetPerimeterSpacing=5;sourcePerimeterSpacing=5;dashed=1;dashPattern=1 4;strokeWidth=3;" edge="1" parent="1" source="iK-NEFrNJ9JzUZttqXqQ-109" target="iK-NEFrNJ9JzUZttqXqQ-13">
          <mxGeometry width="100" relative="1" as="geometry">
            <mxPoint x="108" y="211" as="sourcePoint" />
            <mxPoint x="-310" y="275" as="targetPoint" />
            <Array as="points">
              <mxPoint x="160" y="201" />
              <mxPoint x="160" y="201" />
            </Array>
          </mxGeometry>
        </mxCell>
        <mxCell id="DxfF0z7PUl6UdrVJI3ow-5" value="" style="edgeStyle=orthogonalEdgeStyle;html=1;endArrow=block;elbow=vertical;startArrow=none;startFill=0;endFill=1;strokeColor=#515151;rounded=0;targetPerimeterSpacing=5;sourcePerimeterSpacing=5;dashed=1;dashPattern=1 4;strokeWidth=3;" edge="1" parent="1" source="iK-NEFrNJ9JzUZttqXqQ-113" target="iK-NEFrNJ9JzUZttqXqQ-14">
          <mxGeometry width="100" relative="1" as="geometry">
            <mxPoint x="455" y="815" as="sourcePoint" />
            <mxPoint x="30" y="750" as="targetPoint" />
            <Array as="points">
              <mxPoint x="170" y="680" />
              <mxPoint x="170" y="680" />
            </Array>
          </mxGeometry>
        </mxCell>
        <mxCell id="DxfF0z7PUl6UdrVJI3ow-9" value="" style="edgeStyle=orthogonalEdgeStyle;html=1;endArrow=block;elbow=vertical;startArrow=none;startFill=0;endFill=1;strokeColor=#666666;rounded=0;targetPerimeterSpacing=3;sourcePerimeterSpacing=1;dashed=1;dashPattern=1 4;strokeWidth=2;" edge="1" parent="1" source="Dy0pCIB4RuVuIuxyZ4c--89" target="iK-NEFrNJ9JzUZttqXqQ-77">
          <mxGeometry width="100" relative="1" as="geometry">
            <mxPoint x="-180" y="460" as="sourcePoint" />
            <mxPoint x="-180" y="499" as="targetPoint" />
            <Array as="points">
              <mxPoint x="-320" y="420" />
              <mxPoint x="-320" y="420" />
            </Array>
          </mxGeometry>
        </mxCell>
        <mxCell id="iK-NEFrNJ9JzUZttqXqQ-117" value="" style="sketch=0;outlineConnect=0;fontColor=#232F3E;gradientColor=none;fillColor=#515151;strokeColor=none;dashed=0;verticalLabelPosition=bottom;verticalAlign=top;align=center;html=1;fontSize=12;fontStyle=0;aspect=fixed;pointerEvents=1;shape=mxgraph.aws4.documents3;" parent="1" vertex="1">
          <mxGeometry x="557.12" y="312.19" width="25.69" height="35.14" as="geometry" />
        </mxCell>
        <mxCell id="DxfF0z7PUl6UdrVJI3ow-11" value="" style="edgeStyle=orthogonalEdgeStyle;html=1;endArrow=none;elbow=vertical;startArrow=block;startFill=1;endFill=0;strokeColor=#515151;rounded=0;targetPerimeterSpacing=0;sourcePerimeterSpacing=5;dashed=1;dashPattern=1 2;strokeWidth=3;" edge="1" parent="1" source="iK-NEFrNJ9JzUZttqXqQ-13" target="iK-NEFrNJ9JzUZttqXqQ-117">
          <mxGeometry width="100" relative="1" as="geometry">
            <mxPoint x="571" y="385" as="sourcePoint" />
            <mxPoint x="578" y="357" as="targetPoint" />
            <Array as="points">
              <mxPoint x="568" y="290" />
              <mxPoint x="568" y="290" />
            </Array>
          </mxGeometry>
        </mxCell>
      </root>
    </mxGraphModel>
  </diagram>
</mxfile>
